<svg width="25" height="168" viewBox="0 0 25 168" fill="none" xmlns="http://www.w3.org/2000/svg">
<path d="M15.2031 105.125C14.5729 105.125 14.0755 105.346 13.7109 105.789C13.3411 106.232 12.9922 107.042 12.6641 108.219C12.3307 109.396 11.9688 110.255 11.5781 110.797C11.026 111.568 10.3021 111.953 9.40625 111.953C8.53646 111.953 7.83073 111.596 7.28906 110.883C6.74219 110.164 6.46875 109.247 6.46875 108.133C6.46875 107.378 6.61458 106.703 6.90625 106.109C7.19792 105.51 7.60417 105.047 8.125 104.719C8.64583 104.391 9.22656 104.227 9.86719 104.227L9.86719 105.195C9.09115 105.195 8.46875 105.461 8 105.992C7.52604 106.523 7.28906 107.237 7.28906 108.133C7.28906 109.003 7.48438 109.695 7.875 110.211C8.26042 110.727 8.76563 110.984 9.39063 110.984C9.96875 110.984 10.4401 110.753 10.8047 110.289C11.1693 109.826 11.4922 109.083 11.7734 108.063C12.0495 107.042 12.3385 106.268 12.6406 105.742C12.9375 105.216 13.2943 104.82 13.7109 104.555C14.1276 104.289 14.6198 104.156 15.1875 104.156C16.0833 104.156 16.8021 104.516 17.3438 105.234C17.8854 105.948 18.1563 106.891 18.1563 108.063C18.1563 108.865 18.013 109.602 17.7266 110.273C17.4401 110.94 17.0391 111.448 16.5234 111.797C16.0078 112.141 15.4167 112.313 14.75 112.313L14.75 111.352C15.5521 111.352 16.1849 111.052 16.6484 110.453C17.112 109.854 17.3438 109.057 17.3438 108.063C17.3438 107.177 17.1484 106.466 16.7578 105.93C16.3672 105.393 15.849 105.125 15.2031 105.125ZM17.3672 99.1719C17.3672 98.5208 17.1849 97.9766 16.8203 97.5391C16.4505 97.0964 15.974 96.8568 15.3906 96.8203L15.3906 95.9219C15.9063 95.9479 16.3776 96.1094 16.8047 96.4063C17.2266 96.7031 17.5573 97.099 17.7969 97.5938C18.0365 98.0833 18.1563 98.6094 18.1563 99.1719C18.1563 100.281 17.7708 101.161 17 101.813C16.2292 102.458 15.1927 102.781 13.8906 102.781L13.6094 102.781C12.776 102.781 12.0391 102.635 11.3984 102.344C10.7578 102.052 10.263 101.635 9.91406 101.094C9.5651 100.547 9.39063 99.9089 9.39063 99.1797C9.39063 98.2526 9.66667 97.4896 10.2188 96.8906C10.7708 96.2865 11.4974 95.9635 12.3984 95.9219L12.3984 96.8203C11.737 96.862 11.2031 97.1016 10.7969 97.5391C10.3906 97.9714 10.1875 98.5182 10.1875 99.1797C10.1875 100.023 10.4922 100.68 11.1016 101.148C11.7109 101.612 12.5651 101.844 13.6641 101.844L13.9375 101.844C15.0156 101.844 15.8568 101.612 16.4609 101.148C17.0651 100.68 17.3672 100.021 17.3672 99.1719ZM10.3438 90.1406C10.3073 90.3385 10.2891 90.5495 10.2891 90.7734C10.2891 91.3568 10.4531 91.8516 10.7813 92.2578C11.1042 92.6589 11.5755 92.9453 12.1953 93.1172L18 93.1172L18 94.0469L9.54688 94.0469L9.54688 93.1328L10.8906 93.1172C9.89063 92.6224 9.39063 91.8281 9.39063 90.7344C9.39063 90.474 9.42448 90.2682 9.49219 90.1172L10.3438 90.1406ZM13.6484 89.3281C12.8359 89.3281 12.1042 89.1719 11.4531 88.8594C10.8021 88.5417 10.2969 88.0964 9.9375 87.5234C9.57292 86.9453 9.39063 86.2917 9.39063 85.5625C9.39063 84.4375 9.78646 83.526 10.5781 82.8281C11.3646 82.1302 12.4089 81.7813 13.7109 81.7813L13.9063 81.7813C14.724 81.7813 15.4609 81.9401 16.1172 82.2578C16.7682 82.5703 17.2708 83.013 17.625 83.5859C17.9792 84.1589 18.1563 84.8125 18.1563 85.5469C18.1563 86.6667 17.763 87.5781 16.9766 88.2813C16.1849 88.9792 15.138 89.3281 13.8359 89.3281L13.6484 89.3281ZM13.9063 88.3906C14.9167 88.3906 15.7474 88.1302 16.3984 87.6094C17.0443 87.0833 17.3672 86.3958 17.3672 85.5469C17.3672 84.7031 17.0443 84.0208 16.3984 83.5C15.7474 82.974 14.8906 82.7109 13.8281 82.7109L13.6484 82.7109C13.0026 82.7109 12.4115 82.8307 11.875 83.0703C11.3385 83.3099 10.9245 83.6458 10.6328 84.0781C10.3359 84.5104 10.1875 85.0052 10.1875 85.5625C10.1875 86.3958 10.5156 87.0755 11.1719 87.6016C11.8229 88.1276 12.6771 88.3906 13.7344 88.3906L13.9063 88.3906ZM18 78.7969L18 79.7344L6 79.7344L6 78.7969L18 78.7969ZM18 75.2031L18 76.1406L6 76.1406L6 75.2031L18 75.2031ZM7.38281 67.3125L9.54688 67.3125L9.54688 65.5625L10.3125 65.5625L10.3125 67.3125L15.9453 67.3125C16.4141 67.3125 16.763 67.2292 16.9922 67.0625C17.2214 66.8906 17.3359 66.6068 17.3359 66.2109C17.3359 66.0547 17.3099 65.8021 17.2578 65.4531L18.0234 65.4141C18.112 65.6589 18.1563 65.9922 18.1563 66.4141C18.1563 67.0547 17.9714 67.5208 17.6016 67.8125C17.2266 68.1042 16.6771 68.25 15.9531 68.25L10.3125 68.25L10.3125 69.8047L9.54688 69.8047L9.54688 68.25L7.38281 68.25L7.38281 67.3125ZM13.6484 64.2969C12.8359 64.2969 12.1042 64.1406 11.4531 63.8281C10.8021 63.5104 10.2969 63.0651 9.9375 62.4922C9.57292 61.9141 9.39063 61.2604 9.39063 60.5313C9.39063 59.4063 9.78646 58.4948 10.5781 57.7969C11.3646 57.099 12.4089 56.75 13.7109 56.75L13.9063 56.75C14.724 56.75 15.4609 56.9089 16.1172 57.2266C16.7682 57.5391 17.2708 57.9818 17.625 58.5547C17.9792 59.1276 18.1563 59.7813 18.1563 60.5156C18.1563 61.6354 17.763 62.5469 16.9766 63.25C16.1849 63.9479 15.138 64.2969 13.8359 64.2969L13.6484 64.2969ZM13.9063 63.3594C14.9167 63.3594 15.7474 63.099 16.3984 62.5781C17.0443 62.0521 17.3672 61.3646 17.3672 60.5156C17.3672 59.6719 17.0443 58.9896 16.3984 58.4688C15.7474 57.9427 14.8906 57.6797 13.8281 57.6797L13.6484 57.6797C13.0026 57.6797 12.4115 57.7995 11.875 58.0391C11.3385 58.2786 10.9245 58.6146 10.6328 59.0469C10.3359 59.4792 10.1875 59.974 10.1875 60.5313C10.1875 61.3646 10.5156 62.0443 11.1719 62.5703C11.8229 63.0964 12.6771 63.3594 13.7344 63.3594L13.9063 63.3594ZM17.3672 47.7969C17.3672 47.1458 17.1849 46.6016 16.8203 46.1641C16.4505 45.7214 15.974 45.4818 15.3906 45.4453L15.3906 44.5469C15.9063 44.5729 16.3776 44.7344 16.8047 45.0313C17.2266 45.3281 17.5573 45.724 17.7969 46.2188C18.0365 46.7083 18.1563 47.2344 18.1563 47.7969C18.1563 48.9063 17.7708 49.7865 17 50.4375C16.2292 51.0833 15.1927 51.4063 13.8906 51.4063L13.6094 51.4063C12.776 51.4063 12.0391 51.2604 11.3984 50.9688C10.7578 50.6771 10.263 50.2604 9.91406 49.7188C9.5651 49.1719 9.39063 48.5339 9.39063 47.8047C9.39063 46.8776 9.66667 46.1146 10.2188 45.5156C10.7708 44.9115 11.4974 44.5885 12.3984 44.5469L12.3984 45.4453C11.737 45.487 11.2031 45.7266 10.7969 46.1641C10.3906 46.5964 10.1875 47.1432 10.1875 47.8047C10.1875 48.6484 10.4922 49.3047 11.1016 49.7734C11.7109 50.237 12.5651 50.4688 13.6641 50.4688L13.9375 50.4688C15.0156 50.4688 15.8568 50.237 16.4609 49.7734C17.0651 49.3047 17.3672 48.6458 17.3672 47.7969ZM18 37.3359C17.7344 37.4297 17.3411 37.4896 16.8203 37.5156C17.2474 37.8438 17.5781 38.263 17.8125 38.7734C18.0417 39.2786 18.1563 39.8151 18.1563 40.3828C18.1563 41.1953 17.9297 41.8542 17.4766 42.3594C17.0234 42.8594 16.4505 43.1094 15.7578 43.1094C14.9349 43.1094 14.2839 42.7682 13.8047 42.0859C13.3255 41.3984 13.0859 40.4427 13.0859 39.2188L13.0859 37.5234L12.125 37.5234C11.5208 37.5234 11.0469 37.7109 10.7031 38.0859C10.3542 38.4557 10.1797 38.9974 10.1797 39.7109C10.1797 40.362 10.3464 40.901 10.6797 41.3281C11.013 41.7552 11.4141 41.9688 11.8828 41.9688L11.875 42.9063C11.2031 42.9063 10.6224 42.5938 10.1328 41.9688C9.63802 41.3438 9.39063 40.5755 9.39063 39.6641C9.39063 38.7214 9.62761 37.9792 10.1016 37.4375C10.5703 36.8906 11.2266 36.6094 12.0703 36.5938L16.0703 36.5938C16.888 36.5938 17.5 36.5078 17.9063 36.3359L18 36.3359L18 37.3359ZM17.3281 40.2734C17.3281 39.6484 17.1771 39.0911 16.875 38.6016C16.5729 38.1068 16.1693 37.7474 15.6641 37.5234L13.8047 37.5234L13.8047 39.1953C13.8151 40.1276 13.987 40.8568 14.3203 41.3828C14.6484 41.9089 15.1016 42.1719 15.6797 42.1719C16.1536 42.1719 16.5469 41.9974 16.8594 41.6484C17.1719 41.2943 17.3281 40.8359 17.3281 40.2734ZM7.38281 32.6406L9.54688 32.6406L9.54688 30.8906L10.3125 30.8906L10.3125 32.6406L15.9453 32.6406C16.4141 32.6406 16.763 32.5573 16.9922 32.3906C17.2214 32.2188 17.3359 31.9349 17.3359 31.5391C17.3359 31.3828 17.3099 31.1302 17.2578 30.7813L18.0234 30.7422C18.112 30.987 18.1563 31.3203 18.1563 31.7422C18.1563 32.3828 17.9714 32.849 17.6016 33.1406C17.2266 33.4323 16.6771 33.5781 15.9531 33.5781L10.3125 33.5781L10.3125 35.1328L9.54688 35.1328L9.54688 33.5781L7.38281 33.5781L7.38281 32.6406ZM18 23.6172C17.7344 23.7109 17.3411 23.7708 16.8203 23.7969C17.2474 24.125 17.5781 24.5443 17.8125 25.0547C18.0417 25.5599 18.1563 26.0964 18.1563 26.6641C18.1563 27.4766 17.9297 28.1354 17.4766 28.6406C17.0234 29.1406 16.4505 29.3906 15.7578 29.3906C14.9349 29.3906 14.2839 29.0495 13.8047 28.3672C13.3255 27.6797 13.0859 26.724 13.0859 25.5L13.0859 23.8047L12.125 23.8047C11.5208 23.8047 11.0469 23.9922 10.7031 24.3672C10.3542 24.737 10.1797 25.2786 10.1797 25.9922C10.1797 26.6432 10.3464 27.1823 10.6797 27.6094C11.013 28.0365 11.4141 28.25 11.8828 28.25L11.875 29.1875C11.2031 29.1875 10.6224 28.875 10.1328 28.25C9.63802 27.625 9.39063 26.8568 9.39063 25.9453C9.39063 25.0026 9.62761 24.2604 10.1016 23.7188C10.5703 23.1719 11.2266 22.8906 12.0703 22.875L16.0703 22.875C16.888 22.875 17.5 22.7891 17.9063 22.6172L18 22.6172L18 23.6172ZM17.3281 26.5547C17.3281 25.9297 17.1771 25.3724 16.875 24.8828C16.5729 24.388 16.1693 24.0286 15.6641 23.8047L13.8047 23.8047L13.8047 25.4766C13.8151 26.4089 13.987 27.138 14.3203 27.6641C14.6484 28.1901 15.1016 28.4531 15.6797 28.4531C16.1536 28.4531 16.5469 28.2786 16.8594 27.9297C17.1719 27.5755 17.3281 27.1172 17.3281 26.5547ZM18 19.3281L18 20.2656L6 20.2656L6 19.3281L18 19.3281ZM13.6484 17.2969C12.8359 17.2969 12.1042 17.1406 11.4531 16.8281C10.8021 16.5104 10.2969 16.0651 9.9375 15.4922C9.57292 14.9141 9.39063 14.2604 9.39063 13.5313C9.39063 12.4063 9.78646 11.4948 10.5781 10.7969C11.3646 10.099 12.4089 9.75 13.7109 9.75L13.9063 9.75C14.724 9.75 15.4609 9.90885 16.1172 10.2266C16.7682 10.5391 17.2708 10.9818 17.625 11.5547C17.9792 12.1276 18.1563 12.7813 18.1563 13.5156C18.1563 14.6354 17.763 15.5469 16.9766 16.25C16.1849 16.9479 15.138 17.2969 13.8359 17.2969L13.6484 17.2969ZM13.9063 16.3594C14.9167 16.3594 15.7474 16.099 16.3984 15.5781C17.0443 15.0521 17.3672 14.3646 17.3672 13.5156C17.3672 12.6719 17.0443 11.9896 16.3984 11.4688C15.7474 10.9427 14.8906 10.6797 13.8281 10.6797L13.6484 10.6797C13.0026 10.6797 12.4115 10.7995 11.875 11.0391C11.3385 11.2786 10.9245 11.6146 10.6328 12.0469C10.3359 12.4792 10.1875 12.974 10.1875 13.5313C10.1875 14.3646 10.5156 15.0443 11.1719 15.5703C11.8229 16.0964 12.6771 16.3594 13.7344 16.3594L13.9063 16.3594ZM13.6953 8.1875C12.3724 8.1875 11.3255 7.89583 10.5547 7.3125C9.77865 6.72396 9.39063 5.92708 9.39063 4.92188C9.39063 3.77083 9.84896 2.89583 10.7656 2.29688L9.54688 2.25L9.54688 1.375L17.8281 1.375C18.9167 1.375 19.7786 1.67969 20.4141 2.28906C21.0495 2.89844 21.3672 3.72396 21.3672 4.76563C21.3672 5.35417 21.2344 5.91667 20.9688 6.45313C20.7083 6.98438 20.3594 7.40365 19.9219 7.71094L19.3594 7.1875C20.1719 6.52604 20.5781 5.73958 20.5781 4.82813C20.5781 4.04688 20.3464 3.4375 19.8828 3C19.4245 2.5625 18.7865 2.33594 17.9688 2.32031L16.9063 2.32031C17.7396 2.91927 18.1563 3.79167 18.1563 4.9375C18.1563 5.91667 17.7656 6.70313 16.9844 7.29688C16.2031 7.89063 15.1484 8.1875 13.8203 8.1875L13.6953 8.1875ZM13.8594 7.24219C14.9375 7.24219 15.7891 7.02604 16.4141 6.59375C17.0339 6.16146 17.3438 5.55208 17.3438 4.76563C17.3438 3.61458 16.8281 2.79948 15.7969 2.32031L11.8672 2.32031C11.3255 2.53906 10.9141 2.85417 10.6328 3.26563C10.3464 3.67708 10.2031 4.17188 10.2031 4.75C10.2031 5.53646 10.513 6.14844 11.1328 6.58594C11.7474 7.02344 12.6563 7.24219 13.8594 7.24219Z" fill="#838383"/>
<path fill-rule="evenodd" clip-rule="evenodd" d="M23 142V155.5C23 161.299 18.299 166 12.5 166C6.70101 166 2 161.299 2 155.5V142C2 136.201 6.70101 131.5 12.5 131.5C18.299 131.5 23 136.201 23 142ZM0 142C0 135.096 5.59644 129.5 12.5 129.5C19.4036 129.5 25 135.096 25 142V155.5C25 162.404 19.4036 168 12.5 168C5.59644 168 0 162.404 0 155.5V142ZM11.5 149.5V158.5L13.5 158.5V149.5H11.5Z" fill="#33A9FF"/>
</svg>
